<?xml version="1.0" encoding="utf-8"?>
<svg xmlns="http://www.w3.org/2000/svg"
	xmlns:xlink="http://www.w3.org/1999/xlink"
	width="22px" height="27px" viewBox="0 0 22 27">
<path fillRule="evenodd" d="M 21 27C 20.89 27.01 0.6 27 0.6 27 0.27 27-0 26.74-0 26.41-0 26.41-0 0.9-0 0.9-0 0.58 0.67-0 1-0 1-0 8.07-0 11-0 11.32-0 13-0 13-0 13-0 13 9 13 9 13 9 18.95 9 21 9 21.34 9 22 9 22 9 22 9 22 26 22 26 22.02 26.32 21.44 26.99 21 27ZM 14.04 7.04C 14.04 7.04 14-0 14-0 14-0 21.76 7.72 21.76 7.72 21.71 7.72 21.87 7.81 22 8 22 8 15 8 15 8 14.57 8 14.04 7.29 14.04 7.04ZM 14-0C 13.82-0.17 14-0.25 14-0Z" fill="rgb(0,157,29)"/></svg>